<svg xmlns="http://www.w3.org/2000/svg" width="18.184" height="15.133" viewBox="0 0 18.184 15.133"><defs><style>.a{fill:#fff;}</style></defs><g transform="translate(0 0)"><path class="a" d="M335.884,488.411a3.706,3.706,0,0,1-.522.582,3.133,3.133,0,0,0-1.148,2.411,11.1,11.1,0,0,1-4.433,7.966,9.888,9.888,0,0,1-5.3,1.935,10.882,10.882,0,0,1-6.234-1.3,1.177,1.177,0,0,1-.36-.279,8.715,8.715,0,0,0,5.211-1.532l-.734-.263a4.386,4.386,0,0,1-2.122-1.5,7.24,7.24,0,0,1-.5-.961h1.4l.051-.109a4.976,4.976,0,0,1-1.986-1.431,4.65,4.65,0,0,1-.854-2.339l1.393.4.074-.1a4.857,4.857,0,0,0-.308-.431,3.968,3.968,0,0,1-.569-4.579,11.16,11.16,0,0,0,7.752,4.01c0-.227.012-.453,0-.678a3.808,3.808,0,0,1,4.211-3.976,4.447,4.447,0,0,1,2.114.94.643.643,0,0,0,.678.1c.622-.245,1.253-.466,1.881-.7l.1.068c-.415.585-.83,1.171-1.283,1.807.6.078,1.076-.33,1.681-.355A2.719,2.719,0,0,1,335.884,488.411Z" transform="translate(-317.885 -486.217)"/></g></svg>