<svg xmlns="http://www.w3.org/2000/svg" width="6.967" height="15.136" viewBox="0 0 6.967 15.136"><defs><style>.a{fill:#fff;}</style></defs><g transform="translate(0 0)"><path class="a" d="M227.831,493.07h-2.115v7.639h-3.039v-7.58h-1.588v-2.575h1.58c0-.654-.01-1.272,0-1.89a5.937,5.937,0,0,1,.088-1.081,2.272,2.272,0,0,1,1.718-1.806,16.1,16.1,0,0,1,3.568-.2v2.649h-.986c-.192,0-.383,0-.574,0-.622.009-.773.161-.774.787,0,.468,0,.937,0,1.405,0,.029.006.057.013.119h2.329C227.98,491.391,227.907,492.213,227.831,493.07Z" transform="translate(-221.089 -485.573)"/></g></svg>