<svg xmlns="http://www.w3.org/2000/svg" width="11.809" height="15.17" viewBox="0 0 11.809 15.17"><defs><style>.a{fill:#fff;}</style></defs><g transform="translate(0 0)"><path class="a" d="M361.3,492.384a6.641,6.641,0,0,1-1.3,3.433A4.173,4.173,0,0,1,357,497.459a2.7,2.7,0,0,1-2.553-1.07c-.435,1.93-.854,3.82-2.344,5.354-.051-.426-.1-.773-.133-1.121a11.062,11.062,0,0,1,.5-3.868c.253-.994.485-1.993.714-2.993a.855.855,0,0,0-.039-.42,3.285,3.285,0,0,1,0-2.221,1.844,1.844,0,0,1,.817-1,1.161,1.161,0,0,1,1.817.994,6.483,6.483,0,0,1-.259,1.478c-.142.582-.356,1.147-.491,1.73a1.371,1.371,0,0,0,1.6,1.669,2.262,2.262,0,0,0,1.492-.9,4.9,4.9,0,0,0,1-2.627,7.034,7.034,0,0,0-.035-1.991,2.834,2.834,0,0,0-2.226-2.267,4.392,4.392,0,0,0-4.371.985,3.839,3.839,0,0,0-1.159,3.8,5.23,5.23,0,0,0,.464.925,1.11,1.11,0,0,1,.108.5,2.829,2.829,0,0,1-.155.617c-.083.278-.215.338-.481.223a2.413,2.413,0,0,1-1.262-1.206,4.687,4.687,0,0,1,.343-4.737,5.854,5.854,0,0,1,4.513-2.69,6.333,6.333,0,0,1,3.6.538A4.955,4.955,0,0,1,361.3,492.384Z" transform="translate(-349.529 -486.573)"/></g></svg>