<svg xmlns="http://www.w3.org/2000/svg" width="10.471" height="22.749" viewBox="0 0 10.471 22.749"><defs><style>.a{fill:#fff;}</style></defs><path class="a" d="M231.222,496.841h-3.179v11.481h-4.568V496.93h-2.387v-3.87h2.375c0-.983-.015-1.912.005-2.841a8.922,8.922,0,0,1,.133-1.625,3.415,3.415,0,0,1,2.582-2.715c1.762-.5,3.558-.2,5.363-.306v3.981h-1.481c-.288,0-.575,0-.863,0-.935.014-1.161.243-1.164,1.183,0,.7,0,1.408,0,2.112,0,.043.009.086.019.178h3.5C231.446,494.318,231.336,495.554,231.222,496.841Z" transform="translate(-221.089 -485.573)"/></svg>