<svg xmlns="http://www.w3.org/2000/svg" width="21.708" height="15.133" viewBox="0 0 21.708 15.133"><defs><style>.a{fill:#fff;}</style></defs><g transform="translate(0 0)"><path class="a" d="M297.835,501.411a2.819,2.819,0,0,0,2.562-2.185,14.749,14.749,0,0,0,.342-2.92q.031-2.182,0-4.364A14.443,14.443,0,0,0,300.4,489a2.741,2.741,0,0,0-2.351-2.14q-2.423-.261-4.86-.279c-1.524-.018-3.045,0-4.563-.012a65.494,65.494,0,0,0-6.783.276,2.758,2.758,0,0,0-2.406,2.074,13.152,13.152,0,0,0-.367,3q-.038,2.186,0,4.369a14.093,14.093,0,0,0,.339,2.939,2.689,2.689,0,0,0,2.262,2.133c1.108.116,2.223.21,3.335.254,1.627.05,3.255.063,4.884.092C292.538,501.686,295.19,501.664,297.835,501.411Zm-10.32-11.433,6.45,4.178-6.45,4.144Z" transform="translate(-279.047 -486.573)"/></g></svg>