<svg xmlns="http://www.w3.org/2000/svg" width="22.743" height="22.744" viewBox="0 0 22.743 22.744"><defs><style>.a{fill:#fff;}</style></defs><path class="a" d="M259.366,488.467a1.424,1.424,0,1,0,1.424,1.424A1.424,1.424,0,0,0,259.366,488.467Z" transform="translate(-241.579 -484.81)"/><path class="a" d="M255.21,489.946a5.845,5.845,0,1,0,5.847,5.845A5.852,5.852,0,0,0,255.21,489.946Zm0,9.719a3.874,3.874,0,1,1,3.875-3.874A3.879,3.879,0,0,1,255.21,499.665Z" transform="translate(-243.84 -484.421)"/><path class="a" d="M261.983,485.573h-11.24a5.759,5.759,0,0,0-5.752,5.753v11.238a5.759,5.759,0,0,0,5.752,5.753h11.24a5.759,5.759,0,0,0,5.752-5.753V491.326A5.759,5.759,0,0,0,261.983,485.573Zm3.781,16.991a3.786,3.786,0,0,1-3.781,3.782h-11.24a3.786,3.786,0,0,1-3.781-3.782V491.326a3.786,3.786,0,0,1,3.781-3.782h11.24a3.786,3.786,0,0,1,3.781,3.782Z" transform="translate(-244.992 -485.573)"/></svg>