<svg xmlns="http://www.w3.org/2000/svg" width="15.132" height="15.133" viewBox="0 0 15.132 15.133"><defs><style>.a{fill:#fff;}</style></defs><g transform="translate(0 0)"><path class="a" d="M258.889,488.467a.947.947,0,1,0,.947.947A.947.947,0,0,0,258.889,488.467Z" transform="translate(-247.055 -486.034)"/><path class="a" d="M253.254,489.946a3.889,3.889,0,1,0,3.89,3.889A3.894,3.894,0,0,0,253.254,489.946Zm0,6.467a2.578,2.578,0,1,1,2.578-2.578A2.581,2.581,0,0,1,253.254,496.413Z" transform="translate(-245.689 -486.27)"/><path class="a" d="M256.3,485.573h-7.478a3.832,3.832,0,0,0-3.827,3.828v7.477a3.832,3.832,0,0,0,3.827,3.828H256.3a3.832,3.832,0,0,0,3.827-3.828V489.4A3.832,3.832,0,0,0,256.3,485.573Zm2.515,11.3a2.519,2.519,0,0,1-2.515,2.516h-7.478a2.519,2.519,0,0,1-2.515-2.516V489.4a2.519,2.519,0,0,1,2.515-2.516H256.3a2.519,2.519,0,0,1,2.515,2.516Z" transform="translate(-244.992 -485.573)"/></g></svg>