<svg xmlns="http://www.w3.org/2000/svg" width="32.627" height="22.745" viewBox="0 0 32.627 22.745"><defs><style>.a{fill:#fff;}</style></defs><path class="a" d="M307.285,508.875a4.236,4.236,0,0,0,3.851-3.284,22.167,22.167,0,0,0,.515-4.388q.047-3.279,0-6.559a21.707,21.707,0,0,0-.515-4.417,4.12,4.12,0,0,0-3.534-3.217c-2.428-.262-4.867-.4-7.305-.419-2.29-.027-4.577,0-6.859-.019a98.472,98.472,0,0,0-10.195.415,4.145,4.145,0,0,0-3.616,3.117,19.767,19.767,0,0,0-.552,4.5q-.058,3.286,0,6.566a21.18,21.18,0,0,0,.509,4.417,4.042,4.042,0,0,0,3.4,3.205c1.665.175,3.342.316,5.012.382,2.445.075,4.893.1,7.341.138C299.325,509.289,303.311,509.254,307.285,508.875Zm-15.511-17.184,9.695,6.28-9.695,6.229Z" transform="translate(-279.047 -486.573)"/></svg>