<svg xmlns="http://www.w3.org/2000/svg" width="49.72" height="14.971" viewBox="0 0 49.72 14.971"><defs><style>.a{fill:#e95d15;}</style></defs><path class="a" d="M259.98,114.674a3.248,3.248,0,0,0,2.3-.842,3.615,3.615,0,0,0,1.125-2.18h-1.7a2.52,2.52,0,0,1-.421.954,1.621,1.621,0,0,1-1.346.586,1.741,1.741,0,0,1-1.409-.683,3.231,3.231,0,0,1-.548-2.061,3.7,3.7,0,0,1,.517-2.127,1.677,1.677,0,0,1,1.44-.751,1.653,1.653,0,0,1,1.356.54,2.457,2.457,0,0,1,.428.893h1.7a2.931,2.931,0,0,0-.564-1.523,3.812,3.812,0,0,0-5.5-.346,4.454,4.454,0,0,0-1.134,3.3,4.53,4.53,0,0,0,.995,3.114A3.51,3.51,0,0,0,259.98,114.674Zm-6.556-1.535a3.1,3.1,0,0,1-1,.135,1.827,1.827,0,0,1-1.457-.5,1.655,1.655,0,0,1-.321-.834h-1.629a2.4,2.4,0,0,0,.928,2,3.974,3.974,0,0,0,2.536.73,3.645,3.645,0,0,0,2.44-.745,2.317,2.317,0,0,0,.867-1.86,2.012,2.012,0,0,0-.724-1.676,3.6,3.6,0,0,0-1.412-.592l-1.428-.344a4.574,4.574,0,0,1-1.09-.339.71.71,0,0,1-.4-.657.85.85,0,0,1,.41-.746,1.89,1.89,0,0,1,1.08-.267,3.339,3.339,0,0,1,1.227.2,1.175,1.175,0,0,1,.658,1.052h1.42a2.423,2.423,0,0,0-.967-1.991,3.664,3.664,0,0,0-2.233-.685,3.439,3.439,0,0,0-2.373.729,2.355,2.355,0,0,0-.8,1.828,2,2,0,0,0,.826,1.777,5.612,5.612,0,0,0,1.791.627l.89.2a4.17,4.17,0,0,1,1.136.381.7.7,0,0,1,.362.63A.954.954,0,0,1,253.424,113.139Zm23.174,2.638a103.937,103.937,0,0,0-27.1,5.066l.038.156a169.769,169.769,0,0,1,49.178-4.141l.017-.161A107.421,107.421,0,0,0,276.6,115.777Zm-10.113-1.649.03-.071.827-2.105h3.024l.829,2.105.031.071.038.1h1.052l-.083-.214-.06-.159-2.8-7.087-.032-.073-.036-.1h-.857l-.038.1-.031.073-2.844,7.083-.06.165-.092.214h1.059Zm2.4-6.089,1.13,2.986H267.7Zm6.664,6.359c1.338,0,2.772-.713,2.772-2.271,0-1.71-1.563-2.023-2.828-2.278-1.239-.243-2-.44-2-1.259,0-.859.835-1.24,1.668-1.24,1.222,0,1.951.57,1.993,1.566v.108l.016.148h.989l-.007-.16-.007-.124c-.06-1.567-1.15-2.463-2.983-2.463-1.326,0-2.653.669-2.652,2.166,0,1.615,1.512,1.923,2.739,2.172,1.119.225,2.092.422,2.092,1.365s-.9,1.339-1.786,1.339c-1.044,0-2.267-.415-2.267-1.6v-.528H272.3v.155l0,.118a2.557,2.557,0,0,0,.69,1.912A3.528,3.528,0,0,0,275.551,114.4Zm6.568,0c1.328,0,2.768-.712,2.768-2.27,0-1.71-1.566-2.023-2.828-2.279-1.248-.241-2.008-.439-2.008-1.259,0-.858.836-1.239,1.665-1.239,1.237,0,1.965.57,2,1.566l.006.108,0,.148h.988l-.01-.16v-.124c-.063-1.567-1.159-2.463-2.991-2.463-1.315,0-2.652.668-2.652,2.165,0,1.615,1.515,1.924,2.739,2.173,1.125.225,2.1.422,2.1,1.365s-.9,1.339-1.782,1.339c-1.05,0-2.275-.414-2.275-1.6v-.528h-.984v.273a2.567,2.567,0,0,0,.69,1.912A3.53,3.53,0,0,0,282.12,114.4Zm8.752-1.1H286.5v-2.569h4.059v-.93H286.5v-2.288h4.325v-.923h-5.306v7.636h5.356Zm3.038.926h.988v-6.712h2.5v-.923h-5.979v.923h2.492Z" transform="translate(-249.013 -106.028)"/></svg>