<svg xmlns="http://www.w3.org/2000/svg" width="211.96" height="14.037" viewBox="0 0 211.96 14.037"><defs><style>.a{fill:#f05a27;}</style></defs><path class="a" d="M141.894-2968.308v-5.133h-2.761v5.133h-3.772v-13.415h3.772v4.938h2.761v-4.938h3.772v13.415Z" transform="translate(-135.361 2981.917)"/><path class="a" d="M403.305-2968.308v-7.621l-1.536,4.763h-2.216l-1.536-4.763v7.621h-3.655v-13.415h3.947l2.352,6.9,2.352-6.9h3.947v13.415Z" transform="translate(-367.94 2981.917)"/><path class="a" d="M550.261-2968.308v-13.415h8.632v3.266h-4.938v1.75h4.51v3.188h-4.51v1.944h4.977v3.266Z" transform="translate(-507.935 2981.917)"/><path class="a" d="M660.2-2973.168a13.633,13.633,0,0,0,3.422.428c1.108,0,1.517-.311,1.517-.992,0-.875-.894-1.127-2.022-1.653-1.73-.778-3.266-1.516-3.266-4.491,0-2.469,1.361-3.752,4.686-3.752a12.688,12.688,0,0,1,3.6.467v2.877a12.289,12.289,0,0,0-2.9-.389c-1.225,0-1.614.233-1.614.875,0,.875,1.205,1.438,2.2,1.905,2.177,1.031,3.091,1.769,3.091,4.1,0,2.7-1.536,4.005-4.977,4.005a12.735,12.735,0,0,1-3.733-.506Z" transform="translate(-606.341 2983.628)"/><path class="a" d="M842.185-2968.308v-13.415h8.438v3.266h-4.744v2.139h4.588v3.188h-4.588v4.822Z" transform="translate(-770.078 2981.917)"/><path class="a" d="M259.619-2976.726c0-4.355,1.925-6.9,5.794-6.9,3.83,0,5.794,2.547,5.794,6.9s-1.964,6.9-5.794,6.9C261.544-2969.824,259.619-2972.371,259.619-2976.726Zm7.757,0c0-2.741-.719-3.752-1.964-3.752s-1.964,1.011-1.964,3.752c0,2.761.719,3.752,1.964,3.752S267.376-2973.965,267.376-2976.726Z" transform="translate(-246.943 2983.628)"/><path class="a" d="M956.152-2976.726c0-4.355,1.925-6.9,5.794-6.9,3.83,0,5.794,2.547,5.794,6.9s-1.964,6.9-5.794,6.9C958.077-2969.824,956.152-2972.371,956.152-2976.726Zm7.757,0c0-2.741-.719-3.752-1.964-3.752s-1.964,1.011-1.964,3.752c0,2.761.719,3.752,1.964,3.752S963.909-2973.965,963.909-2976.726Z" transform="translate(-872.419 2983.628)"/><path class="a" d="M1109.928-2968.308l-2.177-4.2h-.544v4.2h-3.733v-13.415h4.8c3.733,0,5.269,1.555,5.269,4.686a3.964,3.964,0,0,1-2.255,3.986l2.605,4.744Zm-1.575-7.388c.933,0,1.419-.35,1.419-1.342s-.486-1.341-1.419-1.341h-1.128v2.683Z" transform="translate(-1004.711 2981.917)"/><g transform="translate(116.888 0.194)"><path class="a" d="M1289.623-2966.4l-.583-2.119H1285.6l-.564,2.119h-3.888l4.2-13.415h3.966l4.2,13.415Zm-2.255-9.488h-.078l-.933,4.3h1.944Z" transform="translate(-1281.146 2980.011)"/><path class="a" d="M1422.94-2966.4v-13.415h3.772v10.071h4.55v3.344Z" transform="translate(-1408.475 2980.011)"/><path class="a" d="M1530.047-2966.4v-13.415h3.772v10.071h4.55v3.344Z" transform="translate(-1504.655 2980.011)"/><path class="a" d="M1811.344-2966.4v-13.415h3.772v13.415Z" transform="translate(-1757.256 2980.011)"/><path class="a" d="M1885.265-2966.4l-2.177-4.2h-.544v4.2h-3.733v-13.415h4.8c3.733,0,5.269,1.555,5.269,4.686a3.965,3.965,0,0,1-2.255,3.986l2.605,4.744Zm-1.575-7.388c.933,0,1.419-.35,1.419-1.342s-.486-1.341-1.419-1.341h-1.128v2.683Z" transform="translate(-1817.839 2980.011)"/><path class="a" d="M2002.689-2966.4v-13.415h4.316c4.375,0,6.144,1.905,6.144,6.669,0,4.822-1.769,6.747-6.183,6.747Zm4.277-3.344c1.633,0,2.353-.467,2.353-3.4,0-2.877-.739-3.324-2.314-3.324h-.544v6.727Z" transform="translate(-1929.081 2980.011)"/><path class="a" d="M2124.63-2971.263a13.642,13.642,0,0,0,3.422.428c1.108,0,1.517-.311,1.517-.992,0-.875-.894-1.127-2.022-1.652-1.73-.778-3.266-1.517-3.266-4.491,0-2.469,1.361-3.752,4.686-3.752a12.688,12.688,0,0,1,3.6.467v2.877a12.264,12.264,0,0,0-2.9-.389c-1.225,0-1.614.233-1.614.875,0,.875,1.206,1.439,2.2,1.905,2.177,1.031,3.091,1.769,3.091,4.1,0,2.7-1.536,4-4.977,4a12.734,12.734,0,0,1-3.733-.505Z" transform="translate(-2038.268 2981.723)"/><g transform="translate(41.334 0.195)"><path class="a" d="M1694.471-2973.339a2.828,2.828,0,0,0,1.595-2.781c0-2.762-1.731-3.7-4.843-3.7h-4.9v4.791c2.782-.338,2.745-1.357,4.073-2.385a1.7,1.7,0,0,1,2.676.669,1.629,1.629,0,0,1,1.4.6c-.085-.117-.554-.016-.668.011a1.578,1.578,0,0,0-.581.275,3.1,3.1,0,0,0-.861,1.142c-.7,1.419-.8,3.232-1.759,4.461a4.436,4.436,0,0,1-3.193,1.639,7.233,7.233,0,0,1-1.083,0v2.216h5.076c3.131,0,5.115-1.147,5.115-4.006C1696.513-2972.386,1695.5-2973.086,1694.471-2973.339Z" transform="translate(-1686.322 2979.816)"/><circle class="a" cx="0.299" cy="0.299" r="0.299" transform="translate(4.634 3.142)"/></g></g></svg>