<svg xmlns="http://www.w3.org/2000/svg" width="85.56" height="25.509" viewBox="0 0 85.56 25.509"><defs><style>.a{fill:#fff;}</style></defs><path class="a" d="M267.7,120.76a5.534,5.534,0,0,0,3.927-1.435,6.159,6.159,0,0,0,1.917-3.715h-2.9a4.3,4.3,0,0,1-.716,1.625,2.762,2.762,0,0,1-2.293,1,2.966,2.966,0,0,1-2.4-1.164,5.5,5.5,0,0,1-.933-3.512,6.3,6.3,0,0,1,.88-3.625,2.858,2.858,0,0,1,2.454-1.28,2.817,2.817,0,0,1,2.31.919,4.186,4.186,0,0,1,.729,1.522h2.9a4.994,4.994,0,0,0-.962-2.6,6.5,6.5,0,0,0-9.37-.59,7.589,7.589,0,0,0-1.932,5.618,7.72,7.72,0,0,0,1.7,5.306A5.98,5.98,0,0,0,267.7,120.76Zm-11.172-2.616a5.275,5.275,0,0,1-1.712.229,3.113,3.113,0,0,1-2.482-.852,2.82,2.82,0,0,1-.546-1.42h-2.775a4.084,4.084,0,0,0,1.581,3.415,6.77,6.77,0,0,0,4.321,1.244,6.21,6.21,0,0,0,4.158-1.269,3.948,3.948,0,0,0,1.477-3.169,3.429,3.429,0,0,0-1.233-2.857,6.126,6.126,0,0,0-2.405-1.008l-2.433-.585a7.791,7.791,0,0,1-1.858-.578,1.21,1.21,0,0,1-.682-1.119,1.449,1.449,0,0,1,.7-1.271,3.22,3.22,0,0,1,1.84-.454,5.69,5.69,0,0,1,2.09.345,2,2,0,0,1,1.121,1.792h2.419a4.128,4.128,0,0,0-1.648-3.392,6.242,6.242,0,0,0-3.806-1.168,5.86,5.86,0,0,0-4.043,1.242,4.013,4.013,0,0,0-1.364,3.114,3.407,3.407,0,0,0,1.408,3.028,9.562,9.562,0,0,0,3.052,1.068l1.516.332a7.107,7.107,0,0,1,1.936.649,1.2,1.2,0,0,1,.617,1.074A1.626,1.626,0,0,1,256.529,118.144Zm39.487,4.5a177.1,177.1,0,0,0-46.174,8.632l.066.265a289.273,289.273,0,0,1,83.795-7.056l.03-.275A183.038,183.038,0,0,0,296.016,122.64Zm-17.231-2.81.052-.122,1.41-3.587H285.4l1.413,3.587.053.122.064.167h1.792l-.142-.365-.1-.272L283.7,107.285l-.055-.125-.061-.173-1.461,0-.064.169-.053.125-4.845,12.069-.1.281-.156.365h1.8Zm4.093-10.376,1.925,5.087H280.86Zm11.354,10.835c2.279,0,4.723-1.214,4.723-3.87,0-2.914-2.663-3.447-4.819-3.882-2.11-.414-3.415-.749-3.415-2.145,0-1.464,1.422-2.114,2.842-2.114,2.082,0,3.325.971,3.4,2.668l0,.184.027.253h1.686l-.012-.273-.013-.211c-.1-2.671-1.959-4.2-5.082-4.2-2.259,0-4.52,1.139-4.519,3.69,0,2.752,2.577,3.276,4.667,3.7,1.908.384,3.565.72,3.565,2.326,0,1.583-1.525,2.282-3.044,2.282-1.779,0-3.863-.707-3.863-2.729v-.9h-1.68v.264l-.006.2a4.357,4.357,0,0,0,1.175,3.258A6.012,6.012,0,0,0,294.232,120.289Zm11.192,0c2.263,0,4.717-1.213,4.716-3.868,0-2.914-2.668-3.447-4.819-3.884-2.126-.411-3.422-.748-3.422-2.145,0-1.463,1.425-2.112,2.838-2.112,2.107,0,3.348.971,3.409,2.668l.011.184.008.253h1.684l-.017-.273V110.9c-.108-2.671-1.975-4.2-5.1-4.2-2.242,0-4.519,1.138-4.519,3.689,0,2.752,2.582,3.278,4.667,3.7,1.917.384,3.575.72,3.575,2.326,0,1.583-1.53,2.282-3.036,2.282-1.789,0-3.876-.706-3.876-2.729v-.9h-1.677v.465a4.373,4.373,0,0,0,1.175,3.258A6.015,6.015,0,0,0,305.424,120.287Zm14.913-1.868h-7.453l0-4.377H319.8l0-1.584h-6.915v-3.9l7.369,0v-1.572l-9.041,0V120h9.127ZM325.514,120H327.2V108.56h4.258v-1.572H321.268v1.572h4.246Z" transform="translate(-249.013 -106.028)"/></svg>