<svg xmlns="http://www.w3.org/2000/svg" width="58.456" height="40.75" viewBox="0 0 58.456 40.75"><defs><style>.a{fill:#fff;}</style></defs><g transform="translate(0)"><path class="a" d="M329.639,526.53a7.59,7.59,0,0,0,6.9-5.883,39.72,39.72,0,0,0,.922-7.862q.084-5.875,0-11.751a38.9,38.9,0,0,0-.922-7.913,7.382,7.382,0,0,0-6.331-5.763c-4.35-.469-8.72-.716-13.088-.751-4.1-.049-8.2,0-12.288-.033a176.443,176.443,0,0,0-18.265.744,7.427,7.427,0,0,0-6.479,5.585,35.417,35.417,0,0,0-.988,8.068q-.1,5.887,0,11.764a37.946,37.946,0,0,0,.912,7.913,7.242,7.242,0,0,0,6.092,5.743c2.982.313,5.987.565,8.98.685,4.38.135,8.766.171,13.152.247C315.377,527.271,322.518,527.21,329.639,526.53Zm-27.79-30.788c5.837,3.782,11.509,7.454,17.369,11.252l-17.369,11.16Z" transform="translate(-279.047 -486.573)"/></g></svg>