<svg xmlns="http://www.w3.org/2000/svg" width="27.331" height="22.744" viewBox="0 0 27.331 22.744"><defs><style>.a{fill:#fff;}</style></defs><g transform="translate(0)"><path class="a" d="M344.937,489.515a5.566,5.566,0,0,1-.785.874,4.708,4.708,0,0,0-1.726,3.623,16.685,16.685,0,0,1-6.663,11.972,14.862,14.862,0,0,1-7.968,2.909,16.355,16.355,0,0,1-9.369-1.959,1.767,1.767,0,0,1-.542-.419,13.1,13.1,0,0,0,7.831-2.3l-1.1-.4a6.593,6.593,0,0,1-3.19-2.249,10.87,10.87,0,0,1-.755-1.444h2.1l.077-.163a7.48,7.48,0,0,1-2.985-2.151,6.989,6.989,0,0,1-1.284-3.516l2.094.6.111-.144a7.3,7.3,0,0,0-.463-.648,5.964,5.964,0,0,1-.856-6.882,16.773,16.773,0,0,0,11.651,6.027c0-.341.019-.681,0-1.019a5.723,5.723,0,0,1,6.329-5.976,6.684,6.684,0,0,1,3.177,1.413.967.967,0,0,0,1.019.156c.935-.368,1.884-.7,2.828-1.048l.154.1c-.624.88-1.248,1.76-1.929,2.717.908.117,1.618-.5,2.526-.533A4.089,4.089,0,0,1,344.937,489.515Z" transform="translate(-317.885 -486.217)"/></g></svg>