<svg xmlns="http://www.w3.org/2000/svg" width="48.966" height="40.749" viewBox="0 0 48.966 40.749"><defs><style>.a{fill:#fff;}</style></defs><path class="a" d="M366.352,492.126a9.971,9.971,0,0,1-1.406,1.566c-2.147,1.653-2.832,3.813-3.092,6.492a29.893,29.893,0,0,1-11.937,21.45,26.627,26.627,0,0,1-14.275,5.211,29.3,29.3,0,0,1-16.786-3.51,3.165,3.165,0,0,1-.97-.751c5.033-.143,9.805-.973,14.031-4.126-.7-.252-1.34-.479-1.976-.708a11.811,11.811,0,0,1-5.715-4.029,19.472,19.472,0,0,1-1.352-2.588h3.767l.138-.293a13.4,13.4,0,0,1-5.348-3.853,12.521,12.521,0,0,1-2.3-6.3c1.4.4,2.575.736,3.752,1.075l.2-.257a13.07,13.07,0,0,0-.83-1.161,10.685,10.685,0,0,1-1.533-12.329c5.573,6.258,12.329,10.188,20.874,10.8,0-.611.033-1.22,0-1.826a10.254,10.254,0,0,1,11.339-10.707,11.974,11.974,0,0,1,5.692,2.532,1.732,1.732,0,0,0,1.826.28c1.676-.66,3.375-1.256,5.066-1.877l.275.183c-1.118,1.577-2.236,3.153-3.456,4.867,1.627.209,2.9-.889,4.526-.955A7.315,7.315,0,0,1,366.352,492.126Z" transform="translate(-317.885 -486.217)"/></svg>