<svg xmlns="http://www.w3.org/2000/svg" width="18.76" height="40.758" viewBox="0 0 18.76 40.758"><defs><style>.a{fill:#fff;}</style></defs><path class="a" d="M239.244,505.762H233.55v20.569h-8.183V505.92h-4.277v-6.933h4.255c0-1.762-.027-3.426.009-5.09a15.986,15.986,0,0,1,.238-2.912,6.118,6.118,0,0,1,4.626-4.864c3.156-.9,6.374-.356,9.608-.548v7.133H237.17c-.516,0-1.03-.007-1.547,0-1.676.025-2.081.435-2.085,2.119,0,1.261,0,2.522,0,3.784,0,.077.016.154.034.319h6.272C239.645,501.24,239.448,503.454,239.244,505.762Z" transform="translate(-221.089 -485.573)"/></svg>