<svg xmlns="http://www.w3.org/2000/svg" width="40.747" height="40.749" viewBox="0 0 40.747 40.749"><defs><style>.a{fill:#fff;}</style></defs><g transform="translate(0)"><path class="a" d="M260.493,488.467a2.551,2.551,0,1,0,2.551,2.551A2.551,2.551,0,0,0,260.493,488.467Z" transform="translate(-228.625 -481.916)"/><path class="a" d="M259.837,489.946a10.472,10.472,0,1,0,10.475,10.472A10.485,10.485,0,0,0,259.837,489.946Zm0,17.413a6.941,6.941,0,1,1,6.943-6.941A6.949,6.949,0,0,1,259.837,507.36Z" transform="translate(-239.465 -480.047)"/><path class="a" d="M275.434,485.573H255.3a10.318,10.318,0,0,0-10.3,10.307v20.134a10.318,10.318,0,0,0,10.3,10.307h20.137a10.319,10.319,0,0,0,10.3-10.307V495.88A10.318,10.318,0,0,0,275.434,485.573Zm6.773,30.442a6.782,6.782,0,0,1-6.773,6.776H255.3a6.782,6.782,0,0,1-6.773-6.776V495.88A6.782,6.782,0,0,1,255.3,489.1h20.137a6.782,6.782,0,0,1,6.773,6.776Z" transform="translate(-244.992 -485.573)"/></g></svg>