<svg xmlns="http://www.w3.org/2000/svg" width="17.75" height="22.8" viewBox="0 0 17.75 22.8"><defs><style>.a{fill:#fff;}</style></defs><path class="a" d="M367.214,495.307a9.982,9.982,0,0,1-1.953,5.16,6.272,6.272,0,0,1-4.5,2.468,4.054,4.054,0,0,1-3.836-1.609c-.653,2.9-1.284,5.741-3.523,8.047-.076-.64-.147-1.161-.2-1.684a16.626,16.626,0,0,1,.748-5.814c.38-1.493.73-3,1.073-4.5a1.284,1.284,0,0,0-.059-.631,4.937,4.937,0,0,1,.007-3.339,2.772,2.772,0,0,1,1.227-1.5,1.745,1.745,0,0,1,2.731,1.493,9.743,9.743,0,0,1-.39,2.222c-.213.875-.535,1.724-.738,2.6a2.061,2.061,0,0,0,2.407,2.508,3.4,3.4,0,0,0,2.242-1.347,7.359,7.359,0,0,0,1.508-3.949,10.572,10.572,0,0,0-.053-2.992,4.26,4.26,0,0,0-3.346-3.407A6.6,6.6,0,0,0,354,490.519a5.77,5.77,0,0,0-1.743,5.7,7.859,7.859,0,0,0,.7,1.391,1.668,1.668,0,0,1,.163.758,4.255,4.255,0,0,1-.233.928c-.125.418-.324.507-.722.335a3.626,3.626,0,0,1-1.9-1.813,7.044,7.044,0,0,1,.515-7.119,8.8,8.8,0,0,1,6.783-4.043,9.518,9.518,0,0,1,5.414.808A7.447,7.447,0,0,1,367.214,495.307Z" transform="translate(-349.529 -486.573)"/></svg>