<svg xmlns="http://www.w3.org/2000/svg" width="101.13" height="30.45" viewBox="0 0 101.13 30.45"><defs><style>.a{fill:#e95d15;}</style></defs><path class="a" d="M271.321,123.614a6.606,6.606,0,0,0,4.688-1.712,7.352,7.352,0,0,0,2.288-4.435h-3.456a5.126,5.126,0,0,1-.855,1.94,3.3,3.3,0,0,1-2.737,1.193,3.541,3.541,0,0,1-2.866-1.39,6.571,6.571,0,0,1-1.114-4.192,7.517,7.517,0,0,1,1.051-4.327,3.412,3.412,0,0,1,2.929-1.528,3.363,3.363,0,0,1,2.758,1.1,5,5,0,0,1,.87,1.817h3.464a5.961,5.961,0,0,0-1.148-3.1q-1.92-2.761-6.084-2.756a6.833,6.833,0,0,0-5.1,2.052c-1.565,1.567-2.309,3.8-2.307,6.706a9.215,9.215,0,0,0,2.024,6.333A7.139,7.139,0,0,0,271.321,123.614Zm-13.336-3.123a6.3,6.3,0,0,1-2.044.274,3.716,3.716,0,0,1-2.963-1.017,3.367,3.367,0,0,1-.652-1.7h-3.313a4.875,4.875,0,0,0,1.888,4.077,8.082,8.082,0,0,0,5.158,1.485,7.413,7.413,0,0,0,4.964-1.515,4.712,4.712,0,0,0,1.763-3.783,4.093,4.093,0,0,0-1.472-3.41,7.313,7.313,0,0,0-2.871-1.2l-2.9-.7a9.3,9.3,0,0,1-2.217-.689,1.445,1.445,0,0,1-.814-1.336,1.729,1.729,0,0,1,.835-1.517,3.843,3.843,0,0,1,2.2-.542,6.792,6.792,0,0,1,2.495.412,2.389,2.389,0,0,1,1.338,2.139h2.888a4.928,4.928,0,0,0-1.968-4.049,7.452,7.452,0,0,0-4.543-1.394,7,7,0,0,0-4.826,1.483,4.791,4.791,0,0,0-1.629,3.717,4.067,4.067,0,0,0,1.681,3.615,11.415,11.415,0,0,0,3.643,1.275l1.809.4a8.481,8.481,0,0,1,2.311.775,1.432,1.432,0,0,1,.736,1.282A1.941,1.941,0,0,1,257.985,120.491Zm47.136,5.366A211.406,211.406,0,0,0,250,136.162l.078.317a345.308,345.308,0,0,1,100.027-8.422l.035-.328A218.494,218.494,0,0,0,305.121,125.858ZM284.552,122.5l.062-.145,1.683-4.282h6.151l1.686,4.282.063.145.076.2h2.139l-.17-.436-.123-.324-5.7-14.415-.065-.149-.073-.207-1.744,0-.076.2-.063.149-5.784,14.407-.123.335-.186.436h2.154Zm4.886-12.386,2.3,6.073h-4.707Zm13.554,12.933c2.72,0,5.638-1.45,5.638-4.619,0-3.479-3.179-4.114-5.752-4.634-2.519-.494-4.077-.894-4.077-2.56,0-1.748,1.7-2.523,3.393-2.523,2.486,0,3.969,1.159,4.055,3.184l0,.22.032.3h2.012l-.015-.326-.015-.252c-.121-3.188-2.339-5.01-6.067-5.01-2.7,0-5.4,1.36-5.394,4.4,0,3.285,3.076,3.911,5.571,4.418,2.277.458,4.256.859,4.256,2.776,0,1.889-1.82,2.724-3.634,2.724-2.124,0-4.612-.844-4.612-3.257v-1.073h-2v.315l-.007.24a5.2,5.2,0,0,0,1.4,3.889A7.177,7.177,0,0,0,302.992,123.051Zm13.36,0c2.7,0,5.631-1.448,5.629-4.617,0-3.479-3.184-4.114-5.752-4.636-2.538-.49-4.084-.893-4.084-2.56,0-1.746,1.7-2.521,3.387-2.521,2.516,0,4,1.159,4.07,3.184l.013.22.009.3h2.01l-.02-.326,0-.252c-.129-3.188-2.357-5.01-6.084-5.01-2.676,0-5.394,1.358-5.394,4.4,0,3.285,3.082,3.913,5.571,4.42,2.288.458,4.267.859,4.267,2.776,0,1.889-1.826,2.724-3.624,2.724-2.135,0-4.627-.842-4.627-3.257v-1.073h-2l0,.555a5.221,5.221,0,0,0,1.4,3.889A7.18,7.18,0,0,0,316.352,123.049Zm17.8-2.23h-8.9l0-5.225h8.256l0-1.891h-8.254v-4.655l8.8,0v-1.876l-10.792,0V122.7h10.895Zm6.179,1.884h2.011V109.05h5.083v-1.876H335.264v1.876h5.068Z" transform="translate(-249.013 -106.028)"/></svg>