<svg xmlns="http://www.w3.org/2000/svg" width="455.68" height="30.178" viewBox="0 0 455.68 30.178"><defs><style>.a{fill:#f05a27;}</style></defs><path class="a" d="M149.4-2952.883v-11.034H143.47v11.034h-8.109v-28.84h8.109v10.617H149.4v-10.617h8.109v28.84Z" transform="translate(-135.361 2982.141)"/><path class="a" d="M413.589-2952.883v-16.385l-3.3,10.24h-4.765l-3.3-10.24v16.385h-7.858v-28.84h8.485l5.057,14.838,5.057-14.838h8.485v28.84Z" transform="translate(-337.559 2982.141)"/><path class="a" d="M550.261-2952.883v-28.84h18.558v7.022H558.2v3.762h9.7v6.855h-9.7v4.179h10.7v7.022Z" transform="translate(-459.267 2982.141)"/><path class="a" d="M660.6-2961.141a29.32,29.32,0,0,0,7.356.92c2.383,0,3.26-.669,3.26-2.132,0-1.881-1.923-2.424-4.347-3.553-3.72-1.672-7.022-3.26-7.022-9.655,0-5.309,2.926-8.067,10.073-8.067a27.281,27.281,0,0,1,7.732,1v6.186a26.406,26.406,0,0,0-6.228-.836c-2.633,0-3.469.5-3.469,1.881,0,1.881,2.591,3.093,4.723,4.1,4.681,2.215,6.646,3.8,6.646,8.819,0,5.81-3.3,8.61-10.7,8.61a27.379,27.379,0,0,1-8.025-1.087Z" transform="translate(-544.818 2983.628)"/><path class="a" d="M842.185-2952.883v-28.84h18.14v7.022h-10.2v4.6h9.864v6.855h-9.864v10.366Z" transform="translate(-687.167 2982.141)"/><path class="a" d="M259.619-2968.79c0-9.363,4.138-14.838,12.456-14.838,8.234,0,12.456,5.475,12.456,14.838s-4.222,14.838-12.456,14.838C263.757-2953.952,259.619-2959.427,259.619-2968.79Zm16.677,0c0-5.894-1.546-8.067-4.221-8.067s-4.222,2.173-4.222,8.067c0,5.935,1.546,8.067,4.222,8.067S276.3-2962.855,276.3-2968.79Z" transform="translate(-232.367 2983.628)"/><path class="a" d="M956.152-2968.79c0-9.363,4.138-14.838,12.456-14.838,8.234,0,12.456,5.475,12.456,14.838s-4.221,14.838-12.456,14.838C960.29-2953.952,956.152-2959.427,956.152-2968.79Zm16.677,0c0-5.894-1.546-8.067-4.221-8.067s-4.222,2.173-4.222,8.067c0,5.935,1.547,8.067,4.222,8.067S972.829-2962.855,972.829-2968.79Z" transform="translate(-776.139 2983.628)"/><path class="a" d="M1117.35-2952.883l-4.681-9.028h-1.17v9.028h-8.025v-28.84H1113.8c8.025,0,11.327,3.344,11.327,10.073,0,4.221-1.63,7.105-4.849,8.568l5.6,10.2Zm-3.385-15.883c2.006,0,3.051-.752,3.051-2.884s-1.045-2.884-3.051-2.884h-2.424v5.768Z" transform="translate(-891.15 2982.141)"/><g transform="translate(251.29 0.418)"><path class="a" d="M1299.37-2950.976l-1.254-4.556h-7.4l-1.212,4.556h-8.359l9.028-28.841h8.527l9.028,28.841Zm-4.849-20.4h-.167l-2.006,9.237h4.18Z" transform="translate(-1281.146 2980.235)"/><path class="a" d="M1422.94-2950.976v-28.841h8.109v21.651h9.781v7.189Z" transform="translate(-1391.842 2980.235)"/><path class="a" d="M1530.047-2950.976v-28.841h8.109v21.651h9.781v7.189Z" transform="translate(-1475.459 2980.235)"/><path class="a" d="M1811.344-2950.976v-28.841h8.109v28.841Z" transform="translate(-1695.063 2980.235)"/><path class="a" d="M1892.687-2950.976l-4.681-9.028h-1.17v9.028h-8.025v-28.841h10.324c8.025,0,11.327,3.344,11.327,10.073,0,4.222-1.63,7.106-4.849,8.569l5.6,10.2Zm-3.385-15.883c2.006,0,3.051-.752,3.051-2.884s-1.045-2.884-3.051-2.884h-2.425v5.768Z" transform="translate(-1747.733 2980.235)"/><path class="a" d="M2002.689-2950.976v-28.841h9.279c9.4,0,13.208,4.1,13.208,14.337,0,10.366-3.8,14.5-13.292,14.5Zm9.2-7.189c3.511,0,5.058-1,5.058-7.314,0-6.186-1.589-7.147-4.974-7.147h-1.17v14.462Z" transform="translate(-1844.443 2980.235)"/><path class="a" d="M2125.033-2959.236a29.319,29.319,0,0,0,7.356.92c2.382,0,3.261-.669,3.261-2.132,0-1.881-1.923-2.424-4.347-3.552-3.72-1.672-7.022-3.26-7.022-9.655,0-5.308,2.926-8.067,10.073-8.067a27.3,27.3,0,0,1,7.732,1v6.186a26.385,26.385,0,0,0-6.228-.836c-2.633,0-3.469.5-3.469,1.881,0,1.881,2.592,3.093,4.723,4.1,4.681,2.215,6.646,3.8,6.646,8.819,0,5.81-3.3,8.61-10.7,8.61a27.385,27.385,0,0,1-8.025-1.087Z" transform="translate(-1939.367 2981.723)"/><g transform="translate(88.862 0.418)"><path class="a" d="M1703.841-2965.892c1.881-.794,3.429-2.8,3.429-5.98,0-5.937-3.721-7.944-10.412-7.944h-10.536v10.3c5.981-.727,5.9-2.919,8.756-5.127,3.649-2.821,5.752,1.438,5.752,1.438a3.5,3.5,0,0,1,3,1.285c-.182-.25-1.191-.034-1.437.024a3.394,3.394,0,0,0-1.249.592,6.671,6.671,0,0,0-1.852,2.455c-1.5,3.052-1.716,6.949-3.782,9.591a9.538,9.538,0,0,1-6.865,3.523,15.616,15.616,0,0,1-2.328.006v4.765h10.913c6.732,0,11-2.467,11-8.614C1708.232-2963.843,1706.058-2965.349,1703.841-2965.892Z" transform="translate(-1686.322 2979.816)"/><circle class="a" cx="0.642" cy="0.642" r="0.642" transform="translate(9.962 6.755)"/></g></g></svg>