<svg xmlns="http://www.w3.org/2000/svg" width="185.56" height="55.509" viewBox="0 0 185.56 55.509"><defs><style>.a{fill:#fff;}</style></defs><path class="a" d="M289.049,137.59a11.856,11.856,0,0,0,8.414-3.073,13.194,13.194,0,0,0,4.107-7.959h-6.2a9.2,9.2,0,0,1-1.535,3.481,5.916,5.916,0,0,1-4.912,2.14,6.354,6.354,0,0,1-5.143-2.495c-1.351-1.669-2-4.177-2-7.524s.612-5.936,1.886-7.765a6.124,6.124,0,0,1,5.257-2.742,6.036,6.036,0,0,1,4.949,1.97,8.969,8.969,0,0,1,1.562,3.261h6.217a10.7,10.7,0,0,0-2.06-5.561q-3.446-4.956-10.918-4.946a12.263,12.263,0,0,0-9.156,3.682c-2.809,2.812-4.143,6.829-4.14,12.036,0,4.812,1.187,8.6,3.632,11.367A12.813,12.813,0,0,0,289.049,137.59Zm-23.934-5.6a11.3,11.3,0,0,1-3.669.492c-2.5,0-4.284-.605-5.317-1.826a6.043,6.043,0,0,1-1.17-3.043h-5.946a8.75,8.75,0,0,0,3.388,7.317c2.237,1.782,5.337,2.665,9.257,2.665,3.849,0,6.812-.923,8.909-2.719a8.458,8.458,0,0,0,3.164-6.789,7.346,7.346,0,0,0-2.642-6.12,13.125,13.125,0,0,0-5.154-2.16l-5.213-1.254a16.692,16.692,0,0,1-3.98-1.237,2.593,2.593,0,0,1-1.461-2.4,3.1,3.1,0,0,1,1.5-2.722,6.9,6.9,0,0,1,3.943-.973,12.19,12.19,0,0,1,4.478.739,4.288,4.288,0,0,1,2.4,3.839h5.183a8.844,8.844,0,0,0-3.531-7.267,13.373,13.373,0,0,0-8.153-2.5c-3.782,0-6.7.883-8.661,2.662a8.6,8.6,0,0,0-2.923,6.672c0,2.946.993,5.1,3.016,6.488a20.485,20.485,0,0,0,6.538,2.287l3.247.712a15.225,15.225,0,0,1,4.147,1.391,2.571,2.571,0,0,1,1.321,2.3A3.483,3.483,0,0,1,265.115,131.985Zm84.6,9.631c-35.221,2.037-69.448,8.447-98.923,18.493l.14.568A588.935,588.935,0,0,1,342.2,146.392a592.321,592.321,0,0,1,88.249-.829l.063-.589A392.137,392.137,0,0,0,349.712,141.616ZM312.8,135.6l.11-.261,3.02-7.685h11.039l3.026,7.685.114.261.137.358h3.839l-.3-.783-.22-.582-10.223-25.87-.117-.268-.13-.371-3.13,0-.137.361-.114.268-10.38,25.857-.221.6-.334.783h3.866Zm8.768-22.228,4.123,10.9H317.24Zm24.325,23.212c4.882,0,10.119-2.6,10.119-8.29,0-6.244-5.7-7.384-10.323-8.317-4.521-.886-7.317-1.605-7.317-4.595,0-3.137,3.047-4.528,6.09-4.528,4.461,0,7.123,2.08,7.277,5.715l0,.395.057.542H355.4l-.027-.585-.027-.451c-.217-5.722-4.2-8.992-10.889-8.992-4.839,0-9.685,2.441-9.681,7.906,0,5.9,5.521,7.019,10,7.929,4.087.823,7.638,1.542,7.638,4.983,0,3.391-3.267,4.889-6.521,4.889-3.812,0-8.277-1.515-8.277-5.846v-1.926h-3.6v.565L334,126.4a9.335,9.335,0,0,0,2.518,6.979C338.576,135.453,341.81,136.58,345.889,136.58Zm23.978,0c4.849,0,10.106-2.6,10.1-8.287,0-6.244-5.715-7.384-10.324-8.32-4.555-.88-7.33-1.6-7.33-4.595,0-3.133,3.053-4.525,6.08-4.525,4.515,0,7.173,2.08,7.3,5.715l.023.395.017.542h3.608l-.037-.585,0-.451c-.231-5.722-4.23-8.992-10.918-8.992-4.8,0-9.681,2.438-9.681,7.9,0,5.9,5.531,7.023,10,7.932,4.107.823,7.658,1.542,7.658,4.983,0,3.391-3.277,4.889-6.5,4.889-3.832,0-8.3-1.512-8.3-5.846v-1.926h-3.592l0,1a9.369,9.369,0,0,0,2.518,6.979C362.537,135.453,365.774,136.577,369.867,136.577Zm31.95-4H385.849l0-9.377h14.818l0-3.394H385.845v-8.354l15.788,0v-3.368l-19.369,0v27.873h19.553Zm11.089,3.381h3.608v-24.5h9.123v-3.368H403.81v3.368h9.1Z" transform="translate(-249.013 -106.028)"/></svg>